<mxfile host="app.diagrams.net" modified="2023-08-31T10:44:55.516Z" agent="Mozilla/5.0 (Macintosh; Intel Mac OS X 10_15_7) AppleWebKit/537.36 (KHTML, like Gecko) Chrome/116.0.0.0 Safari/537.36" etag="pFWOvwOkuJ9FP2A_YmM3" version="21.6.9" type="github">
  <diagram name="페이지-1" id="-CyxK_wD2pUnYuliwwnz">
    <mxGraphModel dx="2074" dy="1125" grid="1" gridSize="10" guides="1" tooltips="1" connect="1" arrows="1" fold="1" page="1" pageScale="1" pageWidth="827" pageHeight="1169" math="0" shadow="0">
      <root>
        <mxCell id="0" />
        <mxCell id="1" parent="0" />
        <mxCell id="sFKjGDoG61tgsUKdyk0R-47" value="" style="shape=corner;whiteSpace=wrap;html=1;rotation=-180;dx=220;dy=180;fillStyle=auto;" vertex="1" parent="1">
          <mxGeometry x="100" y="380" width="670" height="616" as="geometry" />
        </mxCell>
        <mxCell id="sFKjGDoG61tgsUKdyk0R-41" value="k8s-m" style="image;sketch=0;aspect=fixed;html=1;points=[];align=center;fontSize=12;image=img/lib/mscae/VM_Linux.svg;" vertex="1" parent="1">
          <mxGeometry x="613.39" y="410" width="86.96" height="80" as="geometry" />
        </mxCell>
        <mxCell id="sFKjGDoG61tgsUKdyk0R-40" value="k8s-w2" style="image;sketch=0;aspect=fixed;html=1;points=[];align=center;fontSize=12;image=img/lib/mscae/VM_Linux.svg;" vertex="1" parent="1">
          <mxGeometry x="613.39" y="840" width="86.96" height="80" as="geometry" />
        </mxCell>
        <mxCell id="sFKjGDoG61tgsUKdyk0R-39" value="k8s-w1" style="image;sketch=0;aspect=fixed;html=1;points=[];align=center;fontSize=12;image=img/lib/mscae/VM_Linux.svg;" vertex="1" parent="1">
          <mxGeometry x="613.39" y="630" width="86.96" height="80" as="geometry" />
        </mxCell>
        <mxCell id="sFKjGDoG61tgsUKdyk0R-35" value="k8s-rtr" style="image;sketch=0;aspect=fixed;html=1;points=[];align=center;fontSize=12;image=img/lib/mscae/VM_Linux.svg;" vertex="1" parent="1">
          <mxGeometry x="370" y="630" width="86.96" height="80" as="geometry" />
        </mxCell>
        <mxCell id="sFKjGDoG61tgsUKdyk0R-28" style="edgeStyle=orthogonalEdgeStyle;rounded=0;orthogonalLoop=1;jettySize=auto;html=1;entryX=0;entryY=0.5;entryDx=0;entryDy=0;entryPerimeter=0;startArrow=classic;startFill=1;" edge="1" parent="1" source="sFKjGDoG61tgsUKdyk0R-16" target="sFKjGDoG61tgsUKdyk0R-19">
          <mxGeometry relative="1" as="geometry" />
        </mxCell>
        <mxCell id="sFKjGDoG61tgsUKdyk0R-29" style="edgeStyle=orthogonalEdgeStyle;rounded=0;orthogonalLoop=1;jettySize=auto;html=1;entryX=0;entryY=0.5;entryDx=0;entryDy=0;entryPerimeter=0;startArrow=classic;startFill=1;" edge="1" parent="1" source="sFKjGDoG61tgsUKdyk0R-16" target="sFKjGDoG61tgsUKdyk0R-20">
          <mxGeometry relative="1" as="geometry" />
        </mxCell>
        <mxCell id="sFKjGDoG61tgsUKdyk0R-30" style="edgeStyle=orthogonalEdgeStyle;rounded=0;orthogonalLoop=1;jettySize=auto;html=1;entryX=0;entryY=0.5;entryDx=0;entryDy=0;entryPerimeter=0;startArrow=classic;startFill=1;" edge="1" parent="1" source="sFKjGDoG61tgsUKdyk0R-16" target="sFKjGDoG61tgsUKdyk0R-22">
          <mxGeometry relative="1" as="geometry" />
        </mxCell>
        <mxCell id="sFKjGDoG61tgsUKdyk0R-16" value="172.16.10.254" style="outlineConnect=0;dashed=0;verticalLabelPosition=bottom;verticalAlign=top;align=center;html=1;shape=mxgraph.aws3.elastic_network_interface;fillColor=#F58534;gradientColor=none;" vertex="1" parent="1">
          <mxGeometry x="450" y="650" width="38.33" height="40" as="geometry" />
        </mxCell>
        <mxCell id="sFKjGDoG61tgsUKdyk0R-32" style="edgeStyle=orthogonalEdgeStyle;rounded=0;orthogonalLoop=1;jettySize=auto;html=1;entryX=1;entryY=0.5;entryDx=0;entryDy=0;entryPerimeter=0;startArrow=classic;startFill=1;" edge="1" parent="1" source="sFKjGDoG61tgsUKdyk0R-17" target="sFKjGDoG61tgsUKdyk0R-18">
          <mxGeometry relative="1" as="geometry" />
        </mxCell>
        <mxCell id="sFKjGDoG61tgsUKdyk0R-17" value="172.16.20.254" style="outlineConnect=0;dashed=0;verticalLabelPosition=bottom;verticalAlign=top;align=center;html=1;shape=mxgraph.aws3.elastic_network_interface;fillColor=#F58534;gradientColor=none;" vertex="1" parent="1">
          <mxGeometry x="340" y="650" width="38.33" height="40" as="geometry" />
        </mxCell>
        <mxCell id="sFKjGDoG61tgsUKdyk0R-19" value="172.16.10.10" style="outlineConnect=0;dashed=0;verticalLabelPosition=bottom;verticalAlign=top;align=center;html=1;shape=mxgraph.aws3.elastic_network_interface;fillColor=#F58534;gradientColor=none;" vertex="1" parent="1">
          <mxGeometry x="580" y="430" width="38.33" height="40" as="geometry" />
        </mxCell>
        <mxCell id="sFKjGDoG61tgsUKdyk0R-20" value="172.16.10.101" style="outlineConnect=0;dashed=0;verticalLabelPosition=bottom;verticalAlign=top;align=center;html=1;shape=mxgraph.aws3.elastic_network_interface;fillColor=#F58534;gradientColor=none;" vertex="1" parent="1">
          <mxGeometry x="580" y="650" width="38.33" height="40" as="geometry" />
        </mxCell>
        <mxCell id="sFKjGDoG61tgsUKdyk0R-22" value="172.16.10.102" style="outlineConnect=0;dashed=0;verticalLabelPosition=bottom;verticalAlign=top;align=center;html=1;shape=mxgraph.aws3.elastic_network_interface;fillColor=#F58534;gradientColor=none;" vertex="1" parent="1">
          <mxGeometry x="580" y="860" width="38.33" height="40" as="geometry" />
        </mxCell>
        <mxCell id="sFKjGDoG61tgsUKdyk0R-31" value="172.16.10.0/24" style="text;html=1;align=center;verticalAlign=middle;resizable=0;points=[];autosize=1;strokeColor=none;fillColor=none;fontSize=14;" vertex="1" parent="1">
          <mxGeometry x="420" y="470" width="120" height="30" as="geometry" />
        </mxCell>
        <mxCell id="sFKjGDoG61tgsUKdyk0R-33" value="172.16.20.0/24" style="text;html=1;align=center;verticalAlign=middle;resizable=0;points=[];autosize=1;strokeColor=none;fillColor=none;fontSize=14;" vertex="1" parent="1">
          <mxGeometry x="200" y="750" width="120" height="30" as="geometry" />
        </mxCell>
        <mxCell id="sFKjGDoG61tgsUKdyk0R-37" value="" style="shape=image;html=1;verticalAlign=top;verticalLabelPosition=bottom;labelBackgroundColor=#ffffff;imageAspect=0;aspect=fixed;image=https://cdn3.iconfinder.com/data/icons/animals-105/150/icon_animal_zebra-128.png" vertex="1" parent="1">
          <mxGeometry x="378.33" y="570" width="70" height="70" as="geometry" />
        </mxCell>
        <mxCell id="sFKjGDoG61tgsUKdyk0R-38" value="Quagga" style="text;html=1;align=center;verticalAlign=middle;resizable=0;points=[];autosize=1;strokeColor=none;fillColor=none;" vertex="1" parent="1">
          <mxGeometry x="379" y="540" width="70" height="30" as="geometry" />
        </mxCell>
        <mxCell id="sFKjGDoG61tgsUKdyk0R-42" value="master" style="sketch=0;html=1;dashed=0;whitespace=wrap;fillColor=#2875E2;strokeColor=#ffffff;points=[[0.005,0.63,0],[0.1,0.2,0],[0.9,0.2,0],[0.5,0,0],[0.995,0.63,0],[0.72,0.99,0],[0.5,1,0],[0.28,0.99,0]];verticalLabelPosition=bottom;align=center;verticalAlign=top;shape=mxgraph.kubernetes.icon;prIcon=master" vertex="1" parent="1">
          <mxGeometry x="690" y="422" width="50" height="48" as="geometry" />
        </mxCell>
        <mxCell id="sFKjGDoG61tgsUKdyk0R-43" value="worker" style="sketch=0;html=1;dashed=0;whitespace=wrap;fillColor=#2875E2;strokeColor=#ffffff;points=[[0.005,0.63,0],[0.1,0.2,0],[0.9,0.2,0],[0.5,0,0],[0.995,0.63,0],[0.72,0.99,0],[0.5,1,0],[0.28,0.99,0]];verticalLabelPosition=bottom;align=center;verticalAlign=top;shape=mxgraph.kubernetes.icon;prIcon=master" vertex="1" parent="1">
          <mxGeometry x="690" y="646" width="50" height="48" as="geometry" />
        </mxCell>
        <mxCell id="sFKjGDoG61tgsUKdyk0R-44" value="worker" style="sketch=0;html=1;dashed=0;whitespace=wrap;fillColor=#2875E2;strokeColor=#ffffff;points=[[0.005,0.63,0],[0.1,0.2,0],[0.9,0.2,0],[0.5,0,0],[0.995,0.63,0],[0.72,0.99,0],[0.5,1,0],[0.28,0.99,0]];verticalLabelPosition=bottom;align=center;verticalAlign=top;shape=mxgraph.kubernetes.icon;prIcon=master" vertex="1" parent="1">
          <mxGeometry x="690" y="856" width="50" height="48" as="geometry" />
        </mxCell>
        <mxCell id="sFKjGDoG61tgsUKdyk0R-46" value="" style="group" vertex="1" connectable="0" parent="1">
          <mxGeometry x="140" y="840" width="148.32999999999998" height="80" as="geometry" />
        </mxCell>
        <mxCell id="sFKjGDoG61tgsUKdyk0R-34" value="k8s-w0" style="image;sketch=0;aspect=fixed;html=1;points=[];align=center;fontSize=12;image=img/lib/mscae/VM_Linux.svg;" vertex="1" parent="sFKjGDoG61tgsUKdyk0R-46">
          <mxGeometry x="40" width="86.96" height="80" as="geometry" />
        </mxCell>
        <mxCell id="sFKjGDoG61tgsUKdyk0R-18" value="172.16.20.100" style="outlineConnect=0;dashed=0;verticalLabelPosition=bottom;verticalAlign=top;align=center;html=1;shape=mxgraph.aws3.elastic_network_interface;fillColor=#F58534;gradientColor=none;" vertex="1" parent="sFKjGDoG61tgsUKdyk0R-46">
          <mxGeometry x="120" y="10" width="38.33" height="40" as="geometry" />
        </mxCell>
        <mxCell id="sFKjGDoG61tgsUKdyk0R-45" value="worker" style="sketch=0;html=1;dashed=0;whitespace=wrap;fillColor=#2875E2;strokeColor=#ffffff;points=[[0.005,0.63,0],[0.1,0.2,0],[0.9,0.2,0],[0.5,0,0],[0.995,0.63,0],[0.72,0.99,0],[0.5,1,0],[0.28,0.99,0]];verticalLabelPosition=bottom;align=center;verticalAlign=top;shape=mxgraph.kubernetes.icon;prIcon=master" vertex="1" parent="sFKjGDoG61tgsUKdyk0R-46">
          <mxGeometry y="16" width="50" height="48" as="geometry" />
        </mxCell>
        <mxCell id="sFKjGDoG61tgsUKdyk0R-48" value="k8s cluster" style="text;html=1;align=center;verticalAlign=middle;resizable=0;points=[];autosize=1;strokeColor=none;fillColor=none;fontSize=27;" vertex="1" parent="1">
          <mxGeometry x="550.35" y="320" width="150" height="50" as="geometry" />
        </mxCell>
      </root>
    </mxGraphModel>
  </diagram>
</mxfile>
